/* XPM */
static char * door_xpm[] = {
"64 64 16 1",
" 	c #000000",
".	c #383838",
"+	c #646464",
"@	c #8C8C8C",
"#	c #A8A8A8",
"$	c #B4B4B4",
"%	c #C0C0C0",
"&	c #D0D0D0",
"*	c #989898",
"=	c #DCDCDC",
"-	c #707070",
";	c #7C7C7C",
">	c #545454",
",	c #484848",
"'	c #2C2C2C",
")	c #202020",
" ...............................................................",
" .++++++++++++++++++++++++++++++++++++++++++++++++++++++++++++++",
" .+@@@@@@@@@@@@@@@@@@@@@@@@@@@@@@@@@@@@@@@@@@@@@@@@@@@@@@@@@@@@+",
" .+@##################$$%%%%%%%%%&%&%&%&%&%%%%%%$$$$######*#**@+",
" .+@###==############$$$==%%%%%%&%&%&%&%&==%%%%$$$$######%%***@+",
" .+@##*%==########$#$$$#%==%%%%&%&%&%&%&#%==%%$$$$######*%=$**@+",
" .+@##-*%@#######$#$$$%-*%;%%%&%&%&%&%&%-*%;%$$$$######*-*%;*@@+",
" .+@##@-;#######$#$$$%%*-;%%%&%&%&%&%&%%*-;%$$$$######*#;-;*@*@+",
" .+@#########$#$#$$$%%%%%%%%&%&%&%&%&%%%%%%$$$$######*#****@*@@+",
" .+@########$#$#$$$%%%%%%%%&%&%&%&%&%%%%%%$$$$######*#****@*@*@+",
" .+@#######$#$#$$$$%*@;;;;;;;;;;;;;;;;;;;;;;@######*#****@*@*@@+",
" .+@######$#$#$$$$%%=#++>>>>>>>>>>>>>>>>>+-%######*#****@*@*@@@+",
" .+@###$#$#$#$$$$%%%%=#*******************%##%###*#****@*@*@@@@+",
" .+@##$#$#$#$$$$%%%%%%=&%&%&%&%&%&%%%%%%$%$#$###*#****@*@*@@@;@+",
" .+@#$#$#$#$$$$%%%%%%%%==%&%&%&%&%%%%%%$$=#$###*#****@*@*@@@;@@+",
" .+@$#$#$#$$$$%%%%%%%%%==&%&%&%&%%%%%%$$=#$###*#****@*@*@@@;@;@+",
" .+@#$#$#$$$$%%%%%%%&%&%==&%&%&%%%%%%$$=$$#####****@*@*@@@;@;@@+",
" .+@$#$#$$$$%@#%%%%&%&%&%==&%&%%%%%%$%=$$#####****@*-*@@@;@;@@@+",
" .+@#$#$$$$%%#;@%%&%&%&%&%==&%%%%%%$%=$$#####*#**@*-,@@@;@;@;@@+",
" .+@$#$$$$%%%#@;@&%&%&%==&%==&%%%%$%=%$###&&*#**@*+.,@@;@;@;@@@+",
" .+@#$$$$%%%%=#+;%&%&%#%==&%=&$%%$%%=$###@%=$**@*+,.,@;@;@;@@@@+",
" .+@$$$$%%%%%=&@>;%&%&-*%;%&==&%$%$=$#$##-*%;***-,>.,;@;@;@@@@@+",
" .+@$$$%%%%%%=&&+>;%&%@-;%%%%==$%$=$#$###;-;***@,++.,@;@;@@@@@@+",
" .+@$$%==%%%%=&&*+>;%&%&%&%%%%==$=$#$#####****@+,;+.,;@;@##@@@@+",
" .+@$%#%==%%&=&&&*+>;%&%&%%%%$%==%#$#####****@+,;;+.,@;@#$%#@*@+",
" .+@%%-*%#%&%==&%&*+>;%&%%%%$%$$%%$#####****@+,;;@+.,;@;-*$;*@@+",
" .+@%%#-;%&%&==&&%&*+>;%%%%$%$$%%$#####*#**@+,;;@;+.,@;@;-;*@*@+",
" .+@%%%%%&%&%==&%&%&*+>;%%$%$$%%$#####*#**@+,;;@;@+.,;@@@@*@*@@+",
" .+@%$;++@&%&==&&%&%&*+>;$%$$%+-;;;;#*#***-,+@@;@;+.,@;@@@@*@*@+",
" .+@$*>--+%&%==&%&%&%%;>>;$$%*.,>++;*#***-,+;@;@;@+.,;@@@@*@*@@+",
" .+@*@,>++&%&==&&%&%%%*;>>;$%;.,''+;#***-,+;@;@;@;+.,@@@@*@*@*@+",
" .+@@*.,>+%&%==&%&%%%%$*;+;%%-., '>;***-,+;@;@;@;@+.,@@@*@*@**@+",
" .+@*$',,+&%&==&&%%%%$%$*;#$#+',' ,;***++;@;@;@;@;+.,@@@@*@***@+",
" .+@$&',,+%&%==&%%%%$%$$%=$#$+',' ,-**@#%#@@;@;@;@+.,@@@*@****@+",
" .+@&%',,+&%&==&%%%$%$$$=%#$#+),,,,+*@*@#%#;@;@;@@+.,@@*@*****@+",
" .+@%&',,+%&%==&%%$%$$$%=#$##+))''.>@*@*@#%#;@;@;@+.,@*@*@****@+",
" .+@&%',,+&%%==&%$%$$$%=%$$##++++-;@*@*@@;$%@;@;@@+.,*@*@*****@+",
" .+@%$'..>%%%==&$%$$$%=%$$####*#****@*@@;@#%#@;@@@+.,@*@******@+",
" .+@$*-''-%%%==&%$$$%=%$$####*#****@*@@;@;@#%#@@@@+.,*@*@*****@+",
" .+@*@@*%%%%%==&$$$%=%$$$###*#****@*@@@@;@;@#%#@@@+.,@*@*$$***@+",
" .+@@@*==%%%%==&$$$==$$$#####****--@@@@;@;@;@#%#@@+.,*@*@$%$**@+",
" .+@@*#%==%%$==&$$%=%$$#####*#**-,>-@@;@;@;@;@#%#*+.,@*@-*$;**@+",
" .+@*%-*%#%$%==&$%=%$$#####*#**+,-,>-;@;@;@;@@@#%*;.,*@*;-;***@+",
" .+@%&#-;%$%$==&%=%$$##&&#*#**+,-*-,-@;@;@##;@@#%#*>,@********@+",
" .+@&%%%%$%$$==&=%$$#$#%%$#**;,-*@@-,-@;@*$%#@@@#%$+,*********@+",
" .+@%%%%$%$$$==&=$$#$#-*%;**-+-*@@@@,>-@;-*$;@@*@#%*,*********@+",
" .+@%%%$%$$$$===$$#$##@-;**-+-*@@@@;-,>-@;-;@@@@*@#%-*********@+",
" .+@%%$%$$$$$==$$#$#####**@+,*@@@@;@;-,>-@;@@@@*@**#;*********@+",
" .+@%$%$$$$$$=$$#$#$###**@+,*@@@@;@;@;-,>-@@@@*@**************@+",
" .+@$%$$$$$$$$$#$#$###*#*+,*@*@@;@;@;@;-,-@@@@@*@**@**********@+",
" .+@%$$$$$$$$$#$#$###*#*;,+@*@@@@;@;@;@;-,-@@@*@**@***********@+",
" .+@$$$$$$$$$#$#$###*#*@++@*@@@@;@;@;@;@;-,-@*@**@************@+",
" .+@$$$$$$$$#$#$###*#*@+;#$$$######$$$$$$*;,-@**@*************@+",
" .+@$$$$$$$#$#$#####*#;#&&=&%%%%%%%%&&===&%;,**@**************@+",
" .+@$$$$$$#$#$#####*#*%&=&%%%%%%%%%%%&&&===%#*@*@*************@+",
" .+@$$$$$#$#$#####*#*#*#***@@@@@@@@@@@@@*@*@*@*@**************@+",
" .+@$$$&&$#$#####*#*#*#*##@@@@@@@@@@@@@*@$$*@*@**********$$***@+",
" .+@$$#%=&$#####*#*#*#*#$%#@@@@@@@@@@@@@#$%#*@**********#$%$**@+",
" .+@$$-*%;#####*#*#*#**-*$;@@@@@@@@@@@@*-*$;@*@*********-*$;**@+",
" .+@$#@-;#####*#*#*#***;-;@@@@@@@@@@@@*@;-;@*@**********;-;***@+",
" .+@#$#$#####*#*#*#***@@@@@@@@@@@@@@@*@*@*@*@*****************@+",
" .+@@@@@@@@@@@@@@@@@@@@@@@@@@@@@@@@@@@@@@@@@@@@@@@@@@@@@@@@@@@@+",
" ,++++++++++++++++++++++++++++++++++++++++++++++++++++++++++++++",
" ,,,,,,,,,,,,,,,,,,,,,,,,,,,,,,,,,,,,,,,,,,,,,,,,,,,,,,,,,,,,,,,"};
